<svg width="16" height="16" viewBox="0 0 16 16" fill="none" xmlns="http://www.w3.org/2000/svg">
<path d="M16 8.18399C16 7.64019 15.955 7.09345 15.8591 6.55847H8.16119V9.63902H12.5694C12.3865 10.6326 11.7987 11.5115 10.9381 12.07V14.0688H13.568C15.1124 12.6755 16 10.6179 16 8.18399Z" fill="#4285F4"/>
<path d="M8.16117 16C10.3623 16 12.2185 15.2916 13.571 14.0688L10.941 12.07C10.2093 12.5579 9.26472 12.8342 8.16417 12.8342C6.03503 12.8342 4.22977 11.4262 3.58203 9.5332H0.868134V11.5938C2.25357 14.2951 5.07542 16 8.16117 16Z" fill="#34A853"/>
<path d="M3.57905 9.5332C3.23718 8.53966 3.23718 7.46382 3.57905 6.47029V4.40973H0.868147C-0.289382 6.67017 -0.289382 9.33332 0.868147 11.5938L3.57905 9.5332V9.5332Z" fill="#FBBC04"/>
<path d="M8.16117 3.16633C9.3247 3.1487 10.4492 3.57786 11.2919 4.36563L13.622 2.08167C12.1466 0.723645 10.1883 -0.0229766 8.16117 0.000539093C5.07542 0.000539093 2.25357 1.70542 0.868134 4.40972L3.57903 6.47028C4.22377 4.57433 6.03204 3.16633 8.16117 3.16633Z" fill="#FE2C25"/>
</svg>
